<mxfile host="app.diagrams.net" modified="2023-04-21T04:47:42.401Z" agent="Mozilla/5.0 (X11; Linux x86_64; rv:109.0) Gecko/20100101 Firefox/112.0" version="21.2.1" etag="7MvKs2Uhwy-jhzwE-soN" type="github">
  <diagram name="Page-1" id="gOW2iXY_9v7flEqzPMnr">
    <mxGraphModel>
      <root>
        <mxCell id="0" />
        <mxCell id="1" parent="0" />
      </root>
    </mxGraphModel>
  </diagram>
</mxfile>
